<svg width="160" height="160" viewBox="0 0 160 160" fill="none" xmlns="http://www.w3.org/2000/svg">
  <defs>
    <linearGradient id="bgc" x1="14" y1="18" x2="146" y2="142" gradientUnits="userSpaceOnUse">
      <stop stop-color="#EC4899"/>
      <stop offset="1" stop-color="#8B5CF6"/>
    </linearGradient>
    <linearGradient id="bodyc" x1="42" y1="36" x2="120" y2="124" gradientUnits="userSpaceOnUse">
      <stop stop-color="#FAF5FF"/>
      <stop offset="1" stop-color="#E2E8F0"/>
    </linearGradient>
  </defs>
  <rect x="12" y="12" width="136" height="136" rx="34" fill="url(#bgc)" fill-opacity="0.18"/>
  <rect x="44" y="36" width="72" height="88" rx="25" fill="url(#bodyc)"/>
  <rect x="52" y="48" width="56" height="28" rx="14" fill="#1E1B4B"/>
  <circle cx="66" cy="62" r="7" fill="#38BDF8"/>
  <circle cx="94" cy="62" r="7" fill="#22D3EE"/>
  <rect x="60" y="86" width="40" height="16" rx="8" fill="#C4B5FD"/>
  <rect x="30" y="52" width="10" height="40" rx="5" fill="#F43F5E"/>
  <rect x="120" y="52" width="10" height="40" rx="5" fill="#F43F5E"/>
  <circle cx="35" cy="47" r="4" fill="#FB7185"/>
  <circle cx="125" cy="47" r="4" fill="#FB7185"/>
  <rect x="64" y="24" width="32" height="10" rx="5" fill="#FBBF24"/>
  <path d="M120 112L132 100" stroke="#E879F9" stroke-width="3" stroke-linecap="round"/>
  <circle cx="136" cy="96" r="8" fill="#FDF2F8" stroke="#E879F9" stroke-width="2"/>
</svg>
