<svg xmlns="http://www.w3.org/2000/svg" width="1200" height="520" viewBox="0 0 1200 520">
  <defs><linearGradient id="g" x1="0" x2="1"><stop stop-color="#00B4D8"/><stop offset="1" stop-color="#8B5CF6"/></linearGradient></defs><rect width="1200" height="520" rx="42" fill="#07111F"/>
  <text x="70" y="75" fill="#FFFFFF" font-family="Inter,Arial" font-size="34" font-weight="800">Flujo de una auditoria GEO</text><text x="70" y="112" fill="#AAB6C5" font-family="Inter,Arial" font-size="18">De contexto de marca a acciones priorizadas para mejorar visibilidad en IA.</text>
  <g><rect x="80" y="190" width="145" height="170" rx="26" fill="rgba(255,255,255,.08)" stroke="rgba(255,255,255,.16)"/><circle cx="124" cy="235" r="24" fill="url(#g)"/><text x="116" y="244" fill="#fff" font-family="Inter,Arial" font-size="24" font-weight="800">1</text><text x="104" y="292" fill="#fff" font-family="Inter,Arial" font-size="20" font-weight="800">Marca</text><text x="104" y="322" fill="#AAB6C5" font-family="Inter,Arial" font-size="14">Industria, pais, idioma</text></g><g><rect x="275" y="190" width="145" height="170" rx="26" fill="rgba(255,255,255,.08)" stroke="rgba(255,255,255,.16)"/><circle cx="319" cy="235" r="24" fill="url(#g)"/><text x="311" y="244" fill="#fff" font-family="Inter,Arial" font-size="24" font-weight="800">2</text><text x="299" y="292" fill="#fff" font-family="Inter,Arial" font-size="20" font-weight="800">Preguntas</text><text x="299" y="322" fill="#AAB6C5" font-family="Inter,Arial" font-size="14">Prompts de mercado</text></g><g><rect x="470" y="190" width="145" height="170" rx="26" fill="rgba(255,255,255,.08)" stroke="rgba(255,255,255,.16)"/><circle cx="514" cy="235" r="24" fill="url(#g)"/><text x="506" y="244" fill="#fff" font-family="Inter,Arial" font-size="24" font-weight="800">3</text><text x="494" y="292" fill="#fff" font-family="Inter,Arial" font-size="20" font-weight="800">Motores IA</text><text x="494" y="322" fill="#AAB6C5" font-family="Inter,Arial" font-size="14">ChatGPT, Gemini, Perplexity</text></g><g><rect x="665" y="190" width="145" height="170" rx="26" fill="rgba(255,255,255,.08)" stroke="rgba(255,255,255,.16)"/><circle cx="709" cy="235" r="24" fill="url(#g)"/><text x="701" y="244" fill="#fff" font-family="Inter,Arial" font-size="24" font-weight="800">4</text><text x="689" y="292" fill="#fff" font-family="Inter,Arial" font-size="20" font-weight="800">Evidencia</text><text x="689" y="322" fill="#AAB6C5" font-family="Inter,Arial" font-size="14">Menciones y citaciones</text></g><g><rect x="860" y="190" width="145" height="170" rx="26" fill="rgba(255,255,255,.08)" stroke="rgba(255,255,255,.16)"/><circle cx="904" cy="235" r="24" fill="url(#g)"/><text x="896" y="244" fill="#fff" font-family="Inter,Arial" font-size="24" font-weight="800">5</text><text x="884" y="292" fill="#fff" font-family="Inter,Arial" font-size="20" font-weight="800">Score</text><text x="884" y="322" fill="#AAB6C5" font-family="Inter,Arial" font-size="14">Lectura ejecutiva</text></g><g><rect x="995" y="190" width="145" height="170" rx="26" fill="rgba(255,255,255,.08)" stroke="rgba(255,255,255,.16)"/><circle cx="1039" cy="235" r="24" fill="url(#g)"/><text x="1031" y="244" fill="#fff" font-family="Inter,Arial" font-size="24" font-weight="800">6</text><text x="1019" y="292" fill="#fff" font-family="Inter,Arial" font-size="20" font-weight="800">Accion</text><text x="1019" y="322" fill="#AAB6C5" font-family="Inter,Arial" font-size="14">Recomendaciones</text></g>
  <path d="M225 275H270M420 275H465M615 275H660M810 275H855M955 275H990" stroke="#37D5FF" stroke-width="7" stroke-linecap="round"/>
</svg>