<svg xmlns="http://www.w3.org/2000/svg" width="1200" height="560" viewBox="0 0 1200 560">
  <defs><linearGradient id="g" x1="0" x2="1"><stop stop-color="#00B4D8"/><stop offset="1" stop-color="#8B5CF6"/></linearGradient></defs><rect width="1200" height="560" rx="42" fill="#F8FBFF"/>
  <text x="70" y="80" fill="#07111F" font-family="Inter,Arial" font-size="34" font-weight="800">Mapa ejecutivo de conceptos GEO</text><text x="70" y="118" fill="#64748B" font-family="Inter,Arial" font-size="18">Como se relacionan menciones, citaciones y competidores dentro de una lectura de visibilidad generativa.</text>
  <circle cx="600" cy="305" r="92" fill="url(#g)"/><text x="550" y="294" fill="#fff" font-family="Inter,Arial" font-size="25" font-weight="800">GEO</text><text x="531" y="328" fill="#fff" font-family="Inter,Arial" font-size="18">Score</text>
  <g><rect x="95" y="215" width="260" height="170" rx="28" fill="#fff" stroke="#DDE7F2"/><text x="130" y="270" font-size="38">💬</text><text x="130" y="318" fill="#07111F" font-family="Inter,Arial" font-size="24" font-weight="800">Mentions</text><text x="130" y="350" fill="#64748B" font-family="Inter,Arial" font-size="16">La marca aparece en respuestas</text></g>
  <g><rect x="845" y="215" width="260" height="170" rx="28" fill="#fff" stroke="#DDE7F2"/><text x="880" y="270" font-size="38">🔗</text><text x="880" y="318" fill="#07111F" font-family="Inter,Arial" font-size="24" font-weight="800">Citations</text><text x="880" y="350" fill="#64748B" font-family="Inter,Arial" font-size="16">Fuentes que respaldan respuestas</text></g>
  <g><rect x="470" y="405" width="260" height="105" rx="28" fill="#fff" stroke="#DDE7F2"/><text x="505" y="468" font-size="36">🏁</text><text x="560" y="456" fill="#07111F" font-family="Inter,Arial" font-size="24" font-weight="800">Competitors</text><text x="560" y="484" fill="#64748B" font-family="Inter,Arial" font-size="16">Presencia comparativa</text></g>
  <path d="M356 300H505M695 300H842M600 397V405" stroke="#00B4D8" stroke-width="8" stroke-linecap="round"/>
</svg>